<svg width="73" height="61" viewBox="0 0 73 61" fill="none" xmlns="http://www.w3.org/2000/svg">
<g clip-path="url(#clip0_18_8)">
<path d="M1.00779 8.20668C1.67732 7.55491 2.54418 7.22552 3.60134 7.22552C4.65849 7.22552 5.52536 7.55491 6.19489 8.20668C6.87147 8.85845 7.20271 9.61535 7.20271 10.4774V12.2925C7.20271 13.6311 6.39927 15.4462 4.79945 17.7379C3.19962 20.0296 2.39618 21.5925 2.39618 22.4195V24.8093C2.39618 25.2578 2.68514 25.7204 3.26305 26.1969C3.84096 26.6735 4.55278 26.9118 5.3985 26.9118C6.24422 26.9118 6.95604 26.6735 7.53395 26.1969C8.11186 25.7204 8.40082 25.2578 8.40082 24.8093V10.4774C8.40082 9.61535 8.82368 8.85845 9.67645 8.20668C10.5222 7.55491 11.5088 7.22552 12.6294 7.22552C13.75 7.22552 14.7296 7.55491 15.5613 8.20668C16.3929 8.85845 16.8087 9.61535 16.8087 10.4774V33.6047H14.4055V10.4774C14.4055 10.3792 14.2434 10.211 13.9262 9.97277C13.6091 9.73449 13.1651 9.61535 12.6012 9.61535C12.0374 9.61535 11.6005 9.73449 11.2833 9.97277C10.9591 10.211 10.8041 10.3792 10.8041 10.4774V24.8093C10.8041 25.9867 10.2685 27.0309 9.19721 27.942C8.12596 28.8531 6.86442 29.3016 5.42669 29.3016C3.98896 29.3016 2.72038 28.846 1.62798 27.942C0.535592 27.0379 -0.00708008 25.9937 -0.00708008 24.8093V22.4195C-0.00708008 21.0809 0.789309 19.2657 2.39618 16.974C3.99601 14.6823 4.79945 13.1195 4.79945 12.2925V10.4774C4.79945 10.2881 4.65144 10.0919 4.36954 9.90268C4.08058 9.71346 3.82686 9.61535 3.60134 9.61535C3.37581 9.61535 3.1221 9.71346 2.83314 9.90268C2.54418 10.0919 2.40323 10.2881 2.40323 10.4774V12.5798H-3.23863e-05V10.4774C-3.23863e-05 9.61535 0.338257 8.85845 1.00779 8.20668Z" fill="#666666"/>
<path d="M7.20984 1.54181H9.6131V2.73322H17.88V5.12304H9.6131C8.59119 5.12304 7.88642 4.78664 7.49879 4.12085C7.30851 3.77044 7.20984 3.40601 7.20984 3.02055V1.54181Z" fill="#666666"/>
<path d="M20.5159 8.20668C21.1854 7.55491 22.0523 7.22552 23.1094 7.22552C24.1666 7.22552 25.0334 7.55491 25.703 8.20668C26.3796 8.85845 26.7108 9.61535 26.7108 10.4774V12.2925C26.7108 13.6311 25.9074 15.4462 24.3075 17.7379C22.7077 20.0296 21.9043 21.5925 21.9043 22.4195V26.6244H25.5056C25.9849 26.6244 26.3091 26.4843 26.4641 26.1969C26.6192 25.9096 26.7038 25.7484 26.7038 25.7204V25.1457C26.7038 24.2556 27.042 23.4847 27.7116 22.8259C28.3811 22.1742 29.107 21.8448 29.8752 21.8448C30.6434 21.8448 31.1086 21.7046 31.2707 21.4173C31.4328 21.1299 31.5103 20.9687 31.5103 20.9407V7.51987H33.9135V20.9477C33.9135 21.7467 33.6246 22.4475 33.0467 23.0502C33.6246 23.6529 33.9135 24.3537 33.9135 25.1527V29.0213H31.5103V25.1527C31.5103 24.9284 31.3623 24.7252 31.0804 24.5289C30.7914 24.3397 30.5377 24.2416 30.3122 24.2416C30.0866 24.2416 29.8329 24.3397 29.544 24.5289C29.255 24.7182 29.1141 24.9284 29.1141 25.1527V25.7274C29.1141 26.6174 28.7758 27.3953 28.1062 28.0471C27.4367 28.6989 26.5698 29.0283 25.5127 29.0283H20.7062C20.382 29.0283 20.1071 28.9091 19.8675 28.6708C19.6279 28.4326 19.5081 28.1522 19.5081 27.8369V22.4405C19.5081 21.1019 20.3044 19.2868 21.9113 16.9951C23.5111 14.7034 24.3146 13.1405 24.3146 12.3135V10.4984C24.3146 10.3092 24.1666 10.1129 23.8847 9.92371C23.5957 9.73449 23.342 9.63637 23.1165 9.63637C22.8909 9.63637 22.6372 9.73449 22.3483 9.92371C22.0593 10.1129 21.9184 10.3092 21.9184 10.4984V12.6009H19.5151V10.4984C19.5151 9.63637 19.8534 8.87948 20.5229 8.22771L20.5159 8.20668Z" fill="#666666"/>
<path d="M46.9446 27.5845C45.6972 28.7339 44.2242 29.3016 42.5257 29.3016C40.8272 29.3016 39.3684 28.853 38.1562 27.963C36.9369 27.0729 36.3308 26.0217 36.3308 24.8093V10.4774C36.3308 9.61534 36.6691 8.85845 37.3386 8.20668C38.0082 7.55491 38.875 7.22552 39.9322 7.22552C40.9893 7.22552 41.8562 7.55491 42.5257 8.20668C43.2023 8.85845 43.5336 9.61534 43.5336 10.4774V12.5798H41.1303V10.4774C41.1303 10.2881 40.9823 10.0919 40.7004 9.90268C40.4114 9.71345 40.1577 9.61534 39.9322 9.61534C39.7067 9.61534 39.4529 9.71345 39.164 9.90268C38.875 10.0919 38.7341 10.2881 38.7341 10.4774V24.8093C38.7341 25.2228 39.0724 25.6783 39.7419 26.1689C40.4185 26.6665 41.2783 26.9118 42.3354 26.9118C43.3926 26.9118 44.2595 26.6665 44.929 26.1689C45.6056 25.6783 45.9368 25.2228 45.9368 24.8093V7.51986H48.3401V24.8163C48.3401 25.2298 48.5797 25.6853 49.0589 26.1759C49.5382 26.6735 50.102 26.9188 50.7433 26.9188C51.3847 26.9188 51.9485 26.6735 52.4277 26.1759C52.907 25.6853 53.1466 25.2298 53.1466 24.8163V0.350403H55.5499V24.8163C55.5499 26.0287 55.0847 27.08 54.1544 27.97C53.2241 28.8601 52.0331 29.3086 50.5742 29.3086C49.1153 29.3086 47.9102 28.7339 46.9446 27.5916V27.5845Z" fill="#666666" stroke="#666666" stroke-miterlimit="10"/>
<path d="M48.3331 31.4041H50.4474C50.7716 31.4041 51.0465 31.5232 51.2861 31.7615C51.5257 31.9998 51.6455 32.2801 51.6455 32.5955V36.415H49.2423V33.7869H48.326V32L48.3331 31.4041Z" fill="#666666" stroke="#666666" stroke-miterlimit="10"/>
<path d="M45.9369 0.588684H48.3401V5.13004H45.9369V0.588684Z" fill="#666666" stroke="#666666" stroke-miterlimit="10"/>
<path d="M59.2429 8.20668C59.9125 7.55491 60.7793 7.22552 61.8365 7.22552C62.8936 7.22552 63.7605 7.55491 64.43 8.20668C65.1066 8.85844 65.4378 9.61534 65.4378 10.4774V12.2925C65.4378 13.6311 64.6344 15.4462 63.0346 17.7379C61.4348 20.0296 60.6313 21.5925 60.6313 22.4195V26.6244H64.2327C64.7119 26.6244 65.0361 26.4842 65.1912 26.1969C65.3462 25.9096 65.4308 25.7484 65.4308 25.7203V25.1457C65.4308 24.2556 65.7691 23.4847 66.4386 22.8259C67.1082 22.1742 67.8341 21.8448 68.6023 21.8448C69.3705 21.8448 69.8356 21.7046 69.9977 21.4173C70.1598 21.1299 70.2373 20.9687 70.2373 20.9407V0.826965H72.6406V20.9407C72.6406 21.7396 72.3516 22.4405 71.7737 23.0432C72.3516 23.6459 72.6406 24.3467 72.6406 25.1457V35.7071H70.2373V25.1457C70.2373 24.9214 70.0893 24.7182 69.8074 24.5219C69.5185 24.3327 69.2647 24.2346 69.0392 24.2346C68.8137 24.2346 68.56 24.3327 68.271 24.5219C67.9821 24.7112 67.8411 24.9214 67.8411 25.1457V25.7203C67.8411 26.6104 67.5028 27.3883 66.8333 28.0401C66.1638 28.6919 65.2969 29.0212 64.2397 29.0212H59.4332C59.109 29.0212 58.8342 28.9021 58.5945 28.6638C58.3549 28.4255 58.2351 28.1452 58.2351 27.8298V22.4335C58.2351 21.0949 59.0315 19.2797 60.6384 16.988C62.2382 14.6963 63.0416 13.1335 63.0416 12.3065V10.4914C63.0416 10.3021 62.8936 10.1059 62.6117 9.91669C62.3228 9.72747 62.0691 9.62935 61.8435 9.62935C61.618 9.62935 61.3643 9.72747 61.0753 9.91669C60.7864 10.1059 60.6454 10.3021 60.6454 10.4914V12.5939H58.2422V10.4914C58.2422 9.62935 58.5804 8.87246 59.25 8.22069L59.2429 8.20668Z" fill="#666666" stroke="#666666" stroke-miterlimit="10"/>
<path d="M1.00779 39.5547C1.67732 38.9029 2.54418 38.5735 3.60134 38.5735C4.65849 38.5735 5.52536 38.9029 6.19489 39.5547C6.87147 40.2064 7.20271 40.9633 7.20271 41.8254V43.6405C7.20271 44.9791 6.39927 46.7942 4.79945 49.0859C3.19962 51.3776 2.39618 52.9405 2.39618 53.7675V56.1573C2.39618 56.6058 2.68514 57.0683 3.26305 57.5449C3.84096 58.0215 4.55278 58.2598 5.3985 58.2598C6.24422 58.2598 6.95604 58.0215 7.53395 57.5449C8.11186 57.0683 8.40082 56.6058 8.40082 56.1573V41.8254C8.40082 40.9633 8.82368 40.2064 9.67645 39.5547C10.5222 38.9029 11.5088 38.5735 12.6294 38.5735C13.75 38.5735 14.7296 38.9029 15.5613 39.5547C16.3929 40.2064 16.8087 40.9633 16.8087 41.8254V60.3622H14.4055V41.8254C14.4055 41.7272 14.2434 41.559 13.9262 41.3208C13.6091 41.0825 13.1651 40.9633 12.6012 40.9633C12.0374 40.9633 11.6005 41.0825 11.2833 41.3208C10.9591 41.559 10.8041 41.7272 10.8041 41.8254V56.1573C10.8041 57.3347 10.2685 58.3789 9.19721 59.29C8.12596 60.201 6.86442 60.6496 5.42669 60.6496C3.98896 60.6496 2.72038 60.194 1.62798 59.29C0.535592 58.3859 -0.00708008 57.3417 -0.00708008 56.1573V53.7675C-0.00708008 52.4289 0.789309 50.6137 2.39618 48.322C3.99601 46.0303 4.79945 44.4675 4.79945 43.6405V41.8254C4.79945 41.6361 4.65144 41.4399 4.36954 41.2507C4.08058 41.0615 3.82686 40.9633 3.60134 40.9633C3.37581 40.9633 3.1221 41.0615 2.83314 41.2507C2.54418 41.4399 2.40323 41.6361 2.40323 41.8254V43.9278H-3.23863e-05V41.8254C-3.23863e-05 40.9633 0.338257 40.2064 1.00779 39.5547Z" fill="#F15A24"/>
<path d="M7.20984 32.8898H9.6131V34.0812H16.8229V36.4711H9.6131C8.59119 36.4711 7.88642 36.1347 7.49879 35.4689C7.30851 35.1185 7.20984 34.754 7.20984 34.3686V32.8898Z" fill="#F15A24"/>
<path d="M20.5159 39.5547C21.1854 38.9029 22.0523 38.5735 23.1094 38.5735C24.1666 38.5735 25.0334 38.9029 25.703 39.5547C26.3796 40.2065 26.7108 40.9634 26.7108 41.8254V43.6405C26.7108 44.9791 25.9074 46.7942 24.3075 49.0859C22.7077 51.3777 21.9043 52.9405 21.9043 53.7675V57.9724H25.5056C25.9849 57.9724 26.3091 57.8323 26.4641 57.5449C26.6192 57.2576 26.7038 57.0964 26.7038 57.0684V56.4937C26.7038 55.6036 27.042 54.8327 27.7116 54.174C28.3811 53.5222 29.107 53.1928 29.8752 53.1928C30.6434 53.1928 31.1086 53.0526 31.2707 52.7653C31.4328 52.478 31.5103 52.3168 31.5103 52.2887V32.175H33.9135V52.2887C33.9135 53.0877 33.6246 53.7885 33.0467 54.3912C33.6246 54.9939 33.9135 55.6947 33.9135 56.4937V60.3623H31.5103V56.4937C31.5103 56.2694 31.3623 56.0662 31.0804 55.87C30.7914 55.6807 30.5377 55.5826 30.3122 55.5826C30.0866 55.5826 29.8329 55.6807 29.544 55.87C29.255 56.0592 29.1141 56.2694 29.1141 56.4937V57.0684C29.1141 57.9584 28.7758 58.7363 28.1062 59.3881C27.4367 60.0399 26.5698 60.3693 25.5127 60.3693H20.7062C20.382 60.3693 20.1071 60.2501 19.8675 60.0118C19.6279 59.7736 19.5081 59.4932 19.5081 59.1779V53.7815C19.5081 52.4429 20.3044 50.6278 21.9113 48.3361C23.5111 46.0444 24.3146 44.4815 24.3146 43.6545V41.8394C24.3146 41.6502 24.1666 41.4539 23.8847 41.2647C23.5957 41.0755 23.342 40.9774 23.1165 40.9774C22.8909 40.9774 22.6372 41.0755 22.3483 41.2647C22.0593 41.4539 21.9184 41.6502 21.9184 41.8394V43.9419H19.5151V41.8394C19.5151 40.9774 19.8534 40.2205 20.5229 39.5687L20.5159 39.5547Z" fill="#F15A24"/>
<path d="M36.3239 31.6914H38.7271V33.1702C38.7271 33.5836 38.9667 34.0392 39.446 34.5298C39.9252 35.0273 40.489 35.2726 41.1304 35.2726C41.7717 35.2726 42.3355 35.0273 42.8148 34.5298C43.294 34.0392 43.5336 33.5836 43.5336 33.1702H45.9369V37.6625C45.9369 38.938 45.5352 40.2415 44.7317 41.5801C43.9283 42.9187 43.5336 43.9979 43.5336 44.8319V57.0613C43.5336 57.2856 43.6746 57.4889 43.9636 57.6851C44.2525 57.8743 44.5062 57.9724 44.7317 57.9724H45.9369V60.3622H44.7317C43.6746 60.3622 42.8077 60.0329 42.1382 59.3811C41.4687 58.7293 41.1304 57.9584 41.1304 57.0613V44.8319C41.1304 43.5564 41.5321 42.2529 42.3355 40.9143C43.1319 39.5757 43.5336 38.4964 43.5336 37.6625V37.0387C42.8289 37.4522 41.9127 37.6625 40.7921 37.6625C39.6715 37.6625 38.6425 37.2139 37.7193 36.3239C36.789 35.4338 36.3239 34.3826 36.3239 33.1702V31.6914Z" fill="#F15A24" stroke="#F15A24" stroke-miterlimit="10"/>
<path d="M59.2429 58.9255C57.9954 60.0749 56.5224 60.6426 54.824 60.6426C53.1255 60.6426 51.6666 60.194 50.4544 59.304C49.2351 58.4139 48.629 57.3627 48.629 56.1503V53.7604C48.629 52.4219 49.4254 50.6067 51.0323 48.315C52.6321 46.0233 53.4356 44.4605 53.4356 43.6335V41.8183C53.4356 41.6291 53.2876 41.4329 53.0056 41.2437C52.7167 41.0544 52.463 40.9563 52.2374 40.9563C52.0119 40.9563 51.7582 41.0544 51.4692 41.2437C51.1803 41.4329 51.0393 41.6291 51.0393 41.8183V43.9208H48.6361V41.8183C48.6361 40.9563 48.9744 40.1994 49.6439 39.5477C50.3134 38.8959 51.1803 38.5665 52.2374 38.5665C53.2946 38.5665 54.1615 38.8959 54.831 39.5477C55.5076 40.1994 55.8388 40.9563 55.8388 41.8183V43.6335C55.8388 44.9721 55.0354 46.7872 53.4356 49.0789C51.8357 51.3706 51.0323 52.9335 51.0323 53.7604V56.1503C51.0323 56.5638 51.3706 57.0193 52.0401 57.5099C52.7167 58.0075 53.5765 58.2527 54.6337 58.2527C55.6908 58.2527 56.5577 58.0075 57.2272 57.5099C57.9038 57.0193 58.235 56.5638 58.235 56.1503V38.8538H60.6383V56.1503C60.6383 56.5638 60.8779 57.0193 61.3572 57.5099C61.8364 58.0075 62.4002 58.2527 63.0416 58.2527C63.6829 58.2527 64.2467 58.0075 64.726 57.5099C65.2052 57.0193 65.4448 56.5638 65.4448 56.1503V31.6844H67.8481V56.1503C67.8481 57.3627 67.3829 58.4139 66.4526 59.304C65.5223 60.194 64.3313 60.6426 62.8724 60.6426C61.4135 60.6426 60.2084 60.0679 59.2429 58.9255Z" fill="#F15A24" stroke="#F15A24" stroke-miterlimit="10"/>
</g>
<defs>
<clipPath id="clip0_18_8">
<rect width="73" height="61" fill="white"/>
</clipPath>
</defs>
</svg>
